<svg width="95" height="21" viewBox="0 0 95 21" fill="none" xmlns="http://www.w3.org/2000/svg">
<path d="M2.04932 10.5212C3.46515 11.384 4.85 11.5556 6.11536 11.275M6.11536 11.275C10.6955 10.2595 13.7103 3.31978 10.9632 1.79573C7.73225 0.00330156 6.3542 5.79824 6.11536 11.275ZM6.11536 11.275C5.92595 15.6185 6.45303 19.7618 7.34065 19.7618C7.5528 19.7618 10.4154 9.56309 15.195 10.5212C17.4824 10.9797 18.1438 12.4128 17.7029 17.6306C17.4367 20.7808 22.356 21.6908 23.5647 11.3245M23.5647 11.3245C23.5779 11.2109 23.5907 11.096 23.603 10.9797C23.6093 10.9203 23.5878 11.0505 23.5647 11.3245ZM23.5647 11.3245C23.4588 12.5765 23.3185 16.831 25.6399 19.7251" stroke="black" stroke-width="2.13123" stroke-linecap="round"/>
<path d="M42.2632 10.1801C43.8347 10.1801 45.1482 10.6787 46.2017 11.6771H46.2026C47.2563 12.6624 47.7827 13.8881 47.7827 15.3519C47.7827 16.8152 47.2836 18.0335 46.2847 19.0052C45.2992 19.9634 44.0601 20.4427 42.5698 20.4427C41.0453 20.4427 39.7654 20.0042 38.7319 19.1263L38.5288 18.9447C37.4754 17.9323 36.9478 16.6997 36.9478 15.2494C36.9479 13.786 37.4684 12.5745 38.5083 11.6166C39.5479 10.659 40.8002 10.1801 42.2632 10.1801ZM32.7788 14.3275C33.1738 14.4365 33.5694 14.5665 33.9644 14.7162H33.9653C34.3755 14.8529 34.7451 15.0245 35.0737 15.2299C35.4044 15.4365 35.6724 15.7323 35.8784 16.1166H35.8794C36.0861 16.4887 36.188 16.9427 36.188 17.4769C36.1879 18.3302 35.7888 19.0388 34.9937 19.601C34.1984 20.1494 33.1303 20.4222 31.7925 20.4222C30.5095 20.4222 29.4561 20.1897 28.6343 19.724C27.8136 19.2588 27.3971 18.6943 27.397 18.0287C27.397 17.6561 27.5075 17.3696 27.7319 17.1732V17.1722C27.9686 16.9773 28.2741 16.8813 28.646 16.8812C29.0474 16.8812 29.3746 17.0264 29.6245 17.3177L29.7134 17.4222C29.9133 17.6702 30.0558 17.9447 30.1401 18.2455L30.1841 18.3705C30.2959 18.659 30.4696 18.9272 30.7056 19.1752C30.9865 19.4428 31.3482 19.5775 31.7925 19.5775C32.224 19.5775 32.5721 19.4628 32.8394 19.2357H32.8403C33.1195 19.0096 33.2602 18.6832 33.2603 18.2533C33.2603 17.8309 33.1116 17.4863 32.814 17.2181L32.6772 17.1078C32.3461 16.8594 31.9471 16.6675 31.48 16.5326L31.2759 16.4779C30.9964 16.4029 30.7165 16.3253 30.437 16.2435L29.5991 15.9877C29.0367 15.7956 28.5564 15.4724 28.1587 15.0199H28.1577C27.7721 14.5516 27.5806 13.9461 27.5806 13.2064C27.5807 12.3267 27.9659 11.6047 28.7339 11.0424L28.8833 10.9379C29.6422 10.4319 30.5988 10.1801 31.7515 10.1801C32.9936 10.1801 34.0064 10.4251 34.7876 10.9183C35.5815 11.3974 35.9837 11.9761 35.9839 12.6547C35.9839 12.9614 35.8649 13.2204 35.6284 13.4291C35.4058 13.6374 35.1273 13.7416 34.7954 13.7416C34.4078 13.7415 34.0942 13.6026 33.8579 13.3246V13.3236C33.6246 13.0354 33.4591 12.726 33.3628 12.3959C33.2685 12.0591 33.1007 11.7555 32.8579 11.4857H32.8569C32.6166 11.2054 32.3037 11.0649 31.9155 11.0648C31.5267 11.0648 31.2124 11.1983 30.9722 11.4652V11.4662C30.7316 11.7201 30.6109 12.034 30.6108 12.4095C30.6108 12.7864 30.7121 13.1019 30.9126 13.3558C31.1142 13.611 31.3764 13.8061 31.6997 13.9408C32.0253 14.0765 32.3851 14.2053 32.7788 14.3275ZM41.855 11.1263C41.236 11.1263 40.7739 11.3711 40.4653 11.8607C40.1556 12.3523 39.9995 13.0928 39.9995 14.0853C39.9995 14.8182 40.1074 15.5924 40.3247 16.4076C40.5555 17.2222 40.9016 17.9418 41.3628 18.5658L41.5435 18.7845C41.9692 19.2605 42.4342 19.4955 42.938 19.4955C43.487 19.4954 43.9089 19.2425 44.2046 18.7318V18.7308C44.5146 18.2185 44.6704 17.4945 44.6704 16.557C44.6704 15.8798 44.5826 15.1868 44.4058 14.4779L44.3247 14.1732C44.1075 13.3451 43.7748 12.6329 43.3276 12.0365L43.3267 12.0355C42.8799 11.4265 42.3893 11.1264 41.855 11.1263Z" fill="black" stroke="black" stroke-width="0.0476436"/>
<path d="M50.9014 10.4105C51.1327 10.3018 51.3141 10.289 51.4346 10.392H51.4355C51.5672 10.48 51.6298 10.6393 51.6299 10.8607V11.9154C51.9202 11.3998 52.3055 11.0083 52.7891 10.7435C53.2973 10.4654 53.9118 10.3265 54.6299 10.3265C55.6707 10.3266 56.5549 10.6764 57.2812 11.3754C58.0227 12.0757 58.4465 13.1857 58.5557 14.7006L58.8008 18.3773L58.8154 18.4974C58.8609 18.7744 58.9834 19.0362 59.1836 19.2836C59.2998 19.4271 59.3874 19.5547 59.4463 19.6654C59.5049 19.7757 59.5361 19.872 59.5361 19.9525V20.0345C59.5361 20.1561 59.4946 20.2506 59.4092 20.3138C59.3249 20.3761 59.2009 20.4056 59.042 20.4056H55.5078C55.349 20.4056 55.2258 20.3761 55.1416 20.3138C55.056 20.2506 55.0147 20.1562 55.0146 20.0345V19.9525C55.0147 19.8781 55.0475 19.7867 55.1094 19.6801C55.1717 19.5728 55.2647 19.4475 55.3877 19.3041V19.3031C55.6427 19.0212 55.7631 18.7144 55.75 18.3812L55.5459 14.601C55.4983 13.5742 55.3265 12.8075 55.0332 12.2982C54.7408 11.7907 54.3273 11.5385 53.792 11.5385C53.3212 11.5385 52.9393 11.6931 52.6445 12.0013L52.5234 12.142C52.2278 12.5452 52.0791 13.0846 52.0791 13.7621V18.3998C52.0791 18.7188 52.2185 19.0195 52.501 19.3021L52.6982 19.5043C52.7549 19.5669 52.8028 19.6245 52.8408 19.6781C52.9163 19.7845 52.9579 19.8767 52.958 19.9525V20.0345C52.958 20.1562 52.9156 20.2506 52.8301 20.3138C52.7458 20.3761 52.6227 20.4056 52.4639 20.4056H48.6641C48.5052 20.4056 48.3811 20.3761 48.2969 20.3138C48.2115 20.2506 48.1699 20.1561 48.1699 20.0345V19.9525C48.17 19.8771 48.2092 19.7854 48.2812 19.6791C48.3539 19.5718 48.4629 19.4457 48.6064 19.3021L48.7109 19.1957C48.9373 18.9443 49.0488 18.6787 49.0488 18.3998V13.64C49.0488 13.4402 48.9949 13.2603 48.8887 13.101V13.1C48.7951 12.9396 48.6819 12.8277 48.5508 12.7621L48.5479 12.7611L48.5488 12.7601C48.4249 12.6775 48.3073 12.582 48.1973 12.472L48.1963 12.4701C48.0987 12.3584 48.048 12.2445 48.0479 12.1283V12.0463C48.0479 11.9635 48.0853 11.8844 48.1562 11.8099C48.227 11.7357 48.3323 11.6648 48.4697 11.5961L50.9004 10.4105H50.9014ZM63.0479 10.4105C63.2669 10.3078 63.4415 10.2857 63.5615 10.3607C63.6817 10.4359 63.7363 10.6015 63.7363 10.8412V12.2406C63.9682 11.6251 64.3017 11.1566 64.7402 10.8373C65.2081 10.4967 65.7918 10.3266 66.4902 10.3265C67.0805 10.3265 67.5437 10.5052 67.876 10.8646C68.2215 11.2101 68.3935 11.6592 68.3936 12.2094C68.3936 12.75 68.2843 13.1599 68.0615 13.4349C67.8379 13.7109 67.5035 13.847 67.0625 13.847C66.7045 13.847 66.4188 13.7574 66.209 13.5756L66.208 13.5746C66.0148 13.3813 65.8964 13.173 65.8545 12.9496C65.8143 12.735 65.7337 12.5407 65.6133 12.3666L65.6123 12.3656C65.4945 12.1824 65.3188 12.0902 65.0811 12.0902C64.9023 12.0902 64.747 12.143 64.6152 12.2484C64.4833 12.354 64.3736 12.5138 64.2861 12.7289C64.1105 13.1611 64.0215 13.6895 64.0215 14.3138V18.3998C64.0215 18.6383 64.101 18.8505 64.2598 19.0365C64.4364 19.2131 64.6067 19.3696 64.7695 19.5052H64.7686C64.9475 19.6429 65.0428 19.7849 65.043 19.932V20.014C65.043 20.1353 65.0039 20.2299 64.9219 20.2933C64.841 20.3558 64.7225 20.3851 64.5703 20.3851H60.79C60.6314 20.3851 60.508 20.3555 60.4238 20.2933C60.3384 20.2301 60.2969 20.1356 60.2969 20.014V19.932C60.297 19.8573 60.3322 19.766 60.3975 19.6595C60.4632 19.5522 60.5615 19.4262 60.6914 19.2826L60.7861 19.1761C60.992 18.9262 61.0938 18.6673 61.0938 18.3998V13.6195C61.0938 13.3015 60.9419 13.0146 60.6328 12.7592C60.4756 12.6293 60.3562 12.514 60.2764 12.4135C60.1972 12.3136 60.1533 12.2243 60.1533 12.1478V12.0668C60.1533 11.8618 60.3083 11.6924 60.5967 11.5551L63.0479 10.4105Z" fill="black" stroke="black" stroke-width="0.0476436"/>
<path d="M78.6421 20.5158C77.3618 20.5158 76.3131 20.2843 75.4958 19.8212C74.6786 19.3581 74.27 18.7997 74.27 18.1459C74.27 17.7782 74.379 17.4989 74.5969 17.3083C74.8285 17.1176 75.1281 17.0222 75.4958 17.0222C75.8908 17.0222 76.2109 17.1652 76.4561 17.4513C76.7012 17.7237 76.8715 18.0301 76.9668 18.3706C77.0758 18.7111 77.2665 19.0244 77.5389 19.3104C77.8249 19.5828 78.1927 19.7191 78.6421 19.7191C79.078 19.7191 79.4321 19.6033 79.7045 19.3717C79.9905 19.1402 80.1336 18.8065 80.1336 18.3706C80.1336 17.8803 79.9361 17.4921 79.5411 17.2061C79.1597 16.9201 78.6898 16.709 78.1314 16.5728C77.5729 16.4229 77.0145 16.2595 76.4561 16.0824C75.8976 15.8917 75.4209 15.5717 75.0259 15.1222C74.6446 14.6591 74.4539 14.0598 74.4539 13.3243C74.4539 12.4526 74.8353 11.7376 75.598 11.1791C76.3744 10.6071 77.3754 10.321 78.6013 10.321C79.8407 10.321 80.8486 10.5662 81.625 11.0565C82.415 11.5333 82.8099 12.1053 82.8099 12.7727C82.8099 13.0723 82.6942 13.3243 82.4626 13.5286C82.2447 13.7329 81.9723 13.8351 81.6454 13.8351C81.264 13.8351 80.9576 13.6989 80.726 13.4265C80.4945 13.1404 80.3311 12.834 80.2357 12.5071C80.1404 12.1666 79.9701 11.8601 79.7249 11.5877C79.4798 11.3017 79.1597 11.1587 78.7647 11.1587C78.3697 11.1587 78.0497 11.2949 77.8045 11.5673C77.5593 11.8261 77.4367 12.1462 77.4367 12.5275C77.4367 12.9089 77.5389 13.229 77.7432 13.4878C77.9475 13.7465 78.2131 13.944 78.54 14.0802C78.8669 14.2164 79.2278 14.3458 79.6228 14.4684C80.0178 14.5774 80.4128 14.7068 80.8078 14.8566C81.2164 14.9928 81.5841 15.1631 81.911 15.3674C82.2379 15.5717 82.5035 15.8645 82.7078 16.2459C82.9121 16.6136 83.0143 17.0631 83.0143 17.5943C83.0143 18.4387 82.6193 19.1402 81.8293 19.6986C81.0393 20.2434 79.9769 20.5158 78.6421 20.5158Z" fill="black"/>
<path d="M93.1787 18.2889C93.2196 18.6022 93.2945 18.8542 93.4035 19.0448C93.526 19.2355 93.6486 19.3581 93.7712 19.4126C93.8938 19.4535 94.0027 19.5079 94.0981 19.576C94.1934 19.6441 94.2411 19.7395 94.2411 19.8621C94.2411 20.2571 93.5873 20.4545 92.2798 20.4545C91.6805 20.4545 91.2378 20.3796 90.9518 20.2298C90.6794 20.0664 90.5159 19.7735 90.4615 19.3513C89.9303 20.1413 89.0245 20.5363 87.7442 20.5363C86.6001 20.5363 85.6739 20.2707 84.9657 19.7395C84.2574 19.2083 83.9033 18.4456 83.9033 17.4513C83.8897 16.4706 84.237 15.7079 84.9452 15.1631C85.6535 14.6182 86.5388 14.3458 87.6012 14.3458C88.5001 14.3458 89.2425 14.5501 89.8281 14.9588L89.8077 14.7136C89.6715 13.4197 89.4808 12.5071 89.2356 11.9759C88.9905 11.4447 88.5751 11.1791 87.9894 11.1791C87.6216 11.1791 87.322 11.3153 87.0904 11.5877C86.8589 11.8601 86.6955 12.1598 86.6001 12.4867C86.5048 12.8136 86.3481 13.1132 86.1302 13.3856C85.9123 13.658 85.6331 13.7942 85.2926 13.7942C84.9248 13.7942 84.6252 13.6921 84.3936 13.4878C84.1757 13.2698 84.0667 12.9906 84.0667 12.6501C84.0667 11.9419 84.4413 11.3766 85.1904 10.9544C85.9531 10.5322 86.8861 10.321 87.9894 10.321C89.3106 10.321 90.3934 10.6956 91.2378 11.4447C92.0823 12.1938 92.5794 13.2154 92.7292 14.5093L93.1787 18.2889ZM88.6432 19.6373C89.0926 19.6373 89.4536 19.4535 89.726 19.0857C89.9984 18.7043 90.121 18.2753 90.0937 17.7986L90.0324 17.0835C89.9779 16.4979 89.8009 16.0484 89.5012 15.7351C89.2152 15.4218 88.8543 15.2652 88.4184 15.2652C87.9826 15.2652 87.6216 15.4218 87.3356 15.7351C87.0632 16.0484 86.927 16.4638 86.927 16.9814C86.927 17.7169 87.0836 18.3434 87.3969 18.861C87.7238 19.3785 88.1392 19.6373 88.6432 19.6373Z" fill="black"/>
<path d="M71.998 10.4309C72.2587 10.3211 72.4715 10.3111 72.6309 10.4114H72.6318C72.7908 10.4982 72.8691 10.6507 72.8691 10.8616V18.3997C72.8691 18.7188 73.0083 19.0203 73.291 19.303C73.4344 19.4464 73.5426 19.5717 73.6152 19.679C73.6873 19.7853 73.7264 19.877 73.7266 19.9524V20.0344C73.7266 20.1561 73.6851 20.2505 73.5996 20.3137C73.5154 20.3759 73.3921 20.4055 73.2334 20.4055H69.4736C69.3215 20.4055 69.2029 20.3762 69.1221 20.3137C69.0401 20.2503 69.001 20.1557 69.001 20.0344V19.9524C69.0011 19.8777 69.0363 19.7864 69.1016 19.6799C69.1673 19.5726 69.2647 19.4465 69.3945 19.303C69.6501 19.0205 69.7773 18.7196 69.7773 18.3997V13.7825C69.7773 13.4487 69.6501 13.1341 69.3945 12.8381C69.2648 12.6879 69.1672 12.5608 69.1016 12.4573C69.0367 12.3549 69.001 12.2712 69.001 12.2092V12.1487C69.001 12.0718 69.0414 11.9959 69.1152 11.9221C69.1891 11.8483 69.2985 11.7738 69.4424 11.6985V11.6975L71.9971 10.4309H71.998ZM71.292 5.73267C71.896 5.73267 72.3798 5.90359 72.7393 6.24927H72.7383C73.1113 6.58089 73.2978 7.0096 73.2979 7.53345C73.2979 8.07083 73.1112 8.51333 72.7383 8.85864C72.3788 9.19044 71.8957 9.35571 71.292 9.35571C70.6884 9.35568 70.1921 9.19075 69.8057 8.85962L69.8047 8.85864C69.4319 8.51335 69.2461 8.07076 69.2461 7.53345C69.2461 7.00952 69.4326 6.58091 69.8057 6.24927C70.1921 5.9043 70.6881 5.7327 71.292 5.73267Z" fill="black" stroke="black" stroke-width="0.0476436"/>
</svg>
