<svg width="125" height="16" viewBox="0 0 125 16" fill="none" xmlns="http://www.w3.org/2000/svg">
<g clip-path="url(#clip0_60_19642)">
<path d="M0.839844 0H13.347V3.20877H3.96702V6.41755H13.3485V9.62632H3.96702V16H0.839844V0ZM13.347 3.20877H16.4742V6.41755H13.347V3.20877Z" fill="black"/>
<path d="M18.2227 0H21.3498V3.20877H18.2227V0ZM18.2227 12.8335H21.3498V15.9984H18.2227V12.8335ZM21.3498 3.20721H24.477V6.41598H21.3498V3.20721ZM21.3498 9.62475H24.477V12.8335H21.3498V9.62475ZM24.477 6.41598H27.6042V9.62475H24.477V6.41598ZM27.6042 3.20721H30.7313V6.41598H27.6042V3.20721ZM27.6042 9.62475H30.7313V12.8335H27.6042V9.62475ZM30.7298 0H33.857V3.20877H30.7298V0ZM30.7298 12.8335H33.857V15.9984H30.7298V12.8335Z" fill="black"/>
<path d="M73.73 3.20877H76.8572V6.41755H86.2387V3.20877H89.3658V16H86.2387V9.62632H76.8572V16H73.73V3.20877ZM76.8572 0H86.2387V3.20877H76.8572V0Z" fill="black"/>
<path d="M91.5479 0H104.055V3.20877H94.6735V6.41755H104.055V9.62632H94.6735V12.8351H104.055V16H91.5479V0ZM104.055 3.20877H107.182V6.41755H104.055V3.20877ZM104.055 9.62632H107.182V12.8351H104.055V9.62632Z" fill="black"/>
<path d="M109.365 3.20877H112.492V6.41755H109.365V3.20877ZM109.365 12.8351H121.872V16H109.365V12.8351ZM112.491 0H124.998V3.20877H112.491V0ZM112.491 6.41755H121.872V9.62632H112.491V6.41755ZM121.872 9.62632H125V12.8351H121.872V9.62632Z" fill="black"/>
<path d="M39.1569 12.8335V0H36.0312V12.8508H39.1157V16H51.6656V12.8335H39.1569Z" fill="black"/>
<path d="M59.0085 12.8335V0H55.8828V12.8508H58.9672V16H71.5171V12.8335H59.0085Z" fill="black"/>
</g>
<defs>
<clipPath id="clip0_60_19642">
<rect width="124.16" height="16" fill="white" transform="translate(0.839844)"/>
</clipPath>
</defs>
</svg>
