<svg width="118" height="22" viewBox="0 0 118 22" fill="none" xmlns="http://www.w3.org/2000/svg">
<g style="mix-blend-mode:luminosity" clip-path="url(#clip0_60_19627)">
<path d="M82.1245 19.7239V9.46381H79.9951V6.94729H82.0139C81.6268 6.06233 81.4885 5.28802 81.4885 4.56903C81.4885 2.13544 83.5348 0.808105 85.8579 0.808105C87.9319 0.808105 89.3976 1.66535 89.9784 3.46288L87.7108 4.4861C87.4341 3.62874 86.7981 3.13105 85.8855 3.13105C85.0836 3.13105 84.3369 3.68407 84.3369 4.87325C84.3369 5.45399 84.5305 6.11776 84.9452 6.94729H88.7892V9.46381H85.1388V19.7239H82.1245Z" fill="#2D39E0"/>
<path d="M85.1055 16.1379H87.7951V18.5587H85.1055V16.1379ZM92.3703 19.7239V9.46381H90.2408V6.94729H92.2597C91.8725 6.06233 91.7343 5.28802 91.7343 4.56903C91.7343 2.13544 93.7807 0.808105 96.1036 0.808105C98.1777 0.808105 99.6434 1.66535 100.224 3.46288L97.9565 4.4861C97.6799 3.62874 97.0438 3.13105 96.1312 3.13105C95.3293 3.13105 94.5826 3.68407 94.5826 4.87325C94.5826 5.45399 94.7762 6.11776 95.1911 6.94729H99.035V9.46381H95.3846V19.7239H92.3703Z" fill="#2D39E0"/>
<path d="M95.3518 16.1505H98.0414V18.5712H95.3518V16.1505ZM60.3194 20.0047C57.6093 20.0047 56.1989 18.622 56.1989 15.58V8.77703H54.1249V6.26051H56.282L56.9733 2.3059H59.2133V6.26051H64.5505V8.77703H59.2133V15.4971C59.2133 16.7415 59.6281 17.3499 60.5683 17.3499C61.481 17.3499 62.1723 16.6032 62.8637 15.027L65.1866 16.2161C64.1358 18.5391 62.4765 20.0047 60.3194 20.0047ZM46.098 19.9941C41.0373 19.9941 38.2441 17.5052 38.2441 14.1313C38.2441 13.3294 38.4101 12.4445 38.659 11.6977L41.535 12.4998C41.3691 12.9976 41.3138 13.523 41.3138 13.9931C41.3138 16.1224 43.2773 17.3946 46.181 17.3946C48.8635 17.3946 50.5227 16.2331 50.5227 14.3802C50.5227 12.7487 49.1124 11.9466 47.3148 11.5595L44.7706 11.0617C40.4012 10.2044 38.8249 8.32398 38.8249 5.53084C38.8249 2.24001 41.7009 0 45.6278 0C50.495 0 53.0393 2.37827 53.3158 6.49874L50.2738 6.91361C49.9143 4.20351 48.5592 2.59956 45.5449 2.59956C43.4155 2.59956 41.8945 3.62277 41.8945 5.3927C41.8945 7.1624 43.5538 7.90911 45.462 8.29627L48.0061 8.79407C52.099 9.56838 53.5923 11.449 53.5923 14.1313C53.5923 17.8094 50.3568 19.9941 46.098 19.9941ZM106.003 19.9677C101.965 19.9677 98.9508 17.147 98.9508 12.9158C98.9508 8.76765 101.882 5.89158 105.809 5.89158C109.763 5.89158 112.141 8.62939 112.141 12.7223C112.141 13.0264 112.141 13.4135 112.114 13.6071H102.103C102.269 16.0131 103.707 17.5341 106.03 17.5341C107.911 17.5341 109.072 16.5385 109.93 14.8792L112.281 16.179C111.229 18.2807 109.293 19.9677 106.003 19.9677ZM102.131 11.5607H109.072C108.906 9.43131 107.773 8.24224 105.726 8.24224C103.763 8.24224 102.408 9.51435 102.131 11.5607ZM114.319 19.7236V1.04166H117.306V19.7236H114.319ZM72.6765 19.9677C68.6666 19.9677 65.6523 17.0363 65.6523 12.9158C65.6523 8.79526 68.6666 5.89158 72.6765 5.89158C76.6587 5.89158 79.6731 8.79526 79.6731 12.9158C79.6731 17.0363 76.6587 19.9677 72.6765 19.9677ZM72.6765 17.5341C74.9995 17.5341 76.5757 15.7642 76.5757 12.9158C76.5757 10.0951 74.9995 8.32517 72.6765 8.32517C70.3535 8.32517 68.7772 10.0674 68.7772 12.9158C68.7772 15.7643 70.3535 17.5341 72.6765 17.5341Z" fill="#2D39E0"/>
<path d="M27.0961 13.6332C28.7179 12.0805 30.0106 10.2172 30.8972 8.15445C31.1752 7.50559 31.3844 6.82939 31.5215 6.13692C31.806 4.68966 30.8631 3.28587 29.4146 3.00138C29.0187 2.92328 28.6103 2.93615 28.2201 3.03902C27.3301 3.27304 26.4354 3.3165 25.5783 3.19431C24.211 2.99912 23.0189 2.36068 22.1253 1.4424C21.8399 1.16912 21.5089 0.947903 21.1472 0.788762C18.9944 -0.15411 16.6807 -0.222375 14.6021 0.427811C14.3284 0.513561 14.0596 0.614001 13.7967 0.728694C12.8282 1.14641 11.9529 1.75319 11.2219 2.5135C10.0404 3.74086 8.99994 5.05062 8.10053 6.42497C6.5631 8.76815 5.40714 11.3404 4.67575 14.0458C3.6905 14.3315 2.83347 14.6525 2.13271 15.0028C0.774745 15.6777 0 16.4596 0 17.2895C0 19.0367 3.4224 20.5592 8.49081 21.361C8.83419 21.4162 9.18446 21.4668 9.54304 21.515C11.711 21.8031 14.1353 21.9641 16.6948 21.9641C25.9158 21.9641 33.3896 19.8714 33.3896 17.2895C33.3896 15.8094 30.9324 14.4902 27.0961 13.6332ZM8.90946 19.106C7.82068 19.106 6.88136 18.4547 6.46509 17.5188C5.89848 16.2444 5.81264 14.8771 6.12775 13.6203C7.03062 10.0614 8.68482 6.80242 10.9128 4.0219C12.2154 2.39476 13.9825 1.36141 15.8718 0.958076C16.2469 0.878056 16.6219 0.833409 16.9911 0.8264C18.416 0.791135 19.7751 1.07918 20.9966 1.62228C21.4181 1.80796 21.7837 2.10058 22.0572 2.47112C22.0834 2.50621 22.1025 2.54615 22.1132 2.58863C22.124 2.63111 22.1263 2.6753 22.12 2.71866C22.1136 2.76203 22.0988 2.80371 22.0763 2.84133C22.0538 2.87895 22.0241 2.91175 21.9889 2.93786C21.9242 2.98656 21.8438 3.00961 21.7632 3.00257C20.0243 2.86151 18.3278 2.992 16.7125 3.35759C16.2693 3.45778 15.8737 3.70621 15.5909 4.0618C14.9313 4.88605 13.8849 5.21756 12.9197 5.00122C12.7486 4.96279 12.5715 4.95845 12.3987 4.98847C12.2259 5.01849 12.0606 5.08228 11.9125 5.17618C11.7643 5.27009 11.6361 5.39227 11.5352 5.53574C11.4342 5.67922 11.3626 5.84118 11.3243 6.01236C11.3094 6.07852 11.2995 6.14572 11.2948 6.21338C11.275 6.50108 11.3016 6.7901 11.3737 7.06933C11.7616 8.55185 12.5082 9.84511 13.4969 10.8774C14.3587 11.7791 14.9877 12.8173 15.3863 13.9189C15.2143 13.9042 15.0416 13.8971 14.869 13.8977C11.8215 13.8977 9.30104 16.1656 8.90946 19.106ZM18.5641 6.77179C18.5641 7.50901 18.2655 8.10743 17.8964 8.10743C17.5272 8.10743 17.2286 7.5089 17.2286 6.77179C17.2286 6.03468 17.5284 5.43626 17.8964 5.43626C18.2643 5.43626 18.5641 6.03468 18.5641 6.77179Z" fill="#1A1000"/>
<path d="M18.564 6.77181C18.564 7.50902 18.2654 8.10745 17.8963 8.10745C17.5271 8.10745 17.2285 7.50892 17.2285 6.77181C17.2285 6.0347 17.5283 5.43628 17.8963 5.43628C18.2642 5.43628 18.564 6.0347 18.564 6.77181Z" fill="white"/>
<path d="M21.9896 2.93795C21.9249 2.98665 21.8445 3.0097 21.7638 3.00266C20.025 2.86138 18.3285 2.99198 16.7131 3.35757C16.27 3.45776 15.8743 3.70619 15.5916 4.06178C14.932 4.88603 13.8856 5.21754 12.9204 5.00121C12.7492 4.96277 12.5722 4.95844 12.3994 4.98846C12.2265 5.01848 12.0613 5.08226 11.9131 5.17616C11.765 5.27007 11.6368 5.39225 11.5358 5.53572C11.4349 5.6792 11.3633 5.84116 11.325 6.01234C11.3101 6.07851 11.3002 6.14571 11.2955 6.21336C11.2757 6.50106 11.3023 6.79008 11.3743 7.06931C11.7623 8.55183 12.5089 9.84509 13.4976 10.8774C14.3593 11.779 14.9884 12.8172 15.387 13.9189C15.2149 13.9041 15.0423 13.8971 14.8697 13.8977C11.8222 13.8977 9.3016 16.1656 8.91002 19.106C7.82135 19.106 6.88203 18.4546 6.46576 17.5188C5.89915 16.2444 5.81331 14.877 6.12843 13.6202C7.03129 10.0614 8.6855 6.8024 10.9134 4.02188C12.2161 2.39474 13.9832 1.36139 15.8725 0.958059C16.2476 0.878039 16.6225 0.833392 16.9918 0.826382C18.4167 0.791118 19.7758 1.07917 20.9973 1.62226C21.4187 1.80795 21.7843 2.10056 22.0578 2.4711C22.0841 2.5062 22.1031 2.54613 22.1139 2.58861C22.1247 2.63109 22.127 2.67528 22.1206 2.71865C22.1143 2.76201 22.0994 2.8037 22.077 2.84131C22.0545 2.87893 22.0248 2.91184 21.9896 2.93795Z" fill="white"/>
</g>
<defs>
<clipPath id="clip0_60_19627">
<rect width="117.333" height="22" fill="white"/>
</clipPath>
</defs>
</svg>
